# xmcd CD database file
#
# Track frame offsets:
#	150
#	19257
#	41501
#	58800
#	83194
#	107561
#	121177
#	147829
#	179138
#	203128
#	218304
#	255973
#	288380
#	306342
#	331790
#
# Disc length: 4744 seconds
#
# Revision: 0
# Processed by: cddbd v1.5.2PL0 Copyright (c) Steve Scherf et al.
# Submitted via: CDex 1.77
#
DISCID=d212860f
DTITLE=Chris Barber - Seven Classic Albums Disc2
DYEAR=1900
DGENRE=Jazz
TTITLE0=Moonshine Man
TTITLE1=You Rascal You
TTITLE2=Bugle Boy March
TTITLE3=Pretty Baby
TTITLE4=Majorca
TTITLE5=Georgia Grind
TTITLE6=Rockin' In Rythhm
TTITLE7=My Old Kentucky Home
TTITLE8=Careless Love
TTITLE9=Strange Things Happen Every Day
TTITLE10=Mamma Don't Allow
TTITLE11=Climax Rag
TTITLE12=Easy Easy Baby
TTITLE13=Gotta Travel On
TTITLE14=What's I'm Gotcha
EXTD=
EXTT0=
EXTT1=
EXTT2=
EXTT3=
EXTT4=
EXTT5=
EXTT6=
EXTT7=
EXTT8=
EXTT9=
EXTT10=
EXTT11=
EXTT12=
EXTT13=
EXTT14=
PLAYORDER=
